<svg width="107" height="41" viewBox="0 0 107 41" fill="none" xmlns="http://www.w3.org/2000/svg">
<circle cx="20.5" cy="20" r="20" fill="black"/>
<path d="M16.7975 9.05508C18.1529 5.74024 22.8471 5.74024 24.2025 9.05509L26.9095 15.6757C27.0464 16.0106 27.2282 16.3253 27.4497 16.6113L31.8298 22.266C34.0229 25.0972 31.6758 29.1625 28.1273 28.6789L21.0402 27.7129C20.6817 27.6641 20.3183 27.6641 19.9598 27.7129L12.8726 28.6789C9.32422 29.1625 6.97715 25.0972 9.1702 22.266L13.5503 16.6113C13.7718 16.3253 13.9536 16.0106 14.0905 15.6757L16.7975 9.05508Z" fill="white"/>
<path d="M50.2374 18.093V16.3182H58.5996V18.093H55.4824V26.5H53.3546V18.093H50.2374ZM65.5002 19.2464C65.4604 18.8454 65.2897 18.5339 64.9881 18.3118C64.6865 18.0897 64.2772 17.9787 63.7601 17.9787C63.4088 17.9787 63.1122 18.0284 62.8702 18.1278C62.6283 18.224 62.4426 18.3582 62.3134 18.5305C62.1874 18.7029 62.1245 18.8984 62.1245 19.1172C62.1178 19.2995 62.156 19.4586 62.2388 19.5945C62.325 19.7304 62.4426 19.848 62.5918 19.9474C62.7409 20.0436 62.9133 20.1281 63.1088 20.201C63.3044 20.2706 63.5132 20.3303 63.7353 20.38L64.65 20.5987C65.0942 20.6982 65.5018 20.8307 65.873 20.9964C66.2443 21.1622 66.5658 21.366 66.8375 21.608C67.1093 21.8499 67.3198 22.1349 67.4689 22.4631C67.6214 22.7912 67.6993 23.1674 67.7026 23.5916C67.6993 24.2147 67.5402 24.755 67.2253 25.2124C66.9138 25.6664 66.463 26.0194 65.873 26.2713C65.2864 26.5199 64.5788 26.6442 63.7502 26.6442C62.9282 26.6442 62.2123 26.5182 61.6025 26.2663C60.9959 26.0144 60.522 25.6416 60.1806 25.1477C59.8425 24.6506 59.6652 24.0357 59.6486 23.3033H61.7317C61.7549 23.6446 61.8527 23.9297 62.025 24.1584C62.2007 24.3838 62.4344 24.5545 62.726 24.6705C63.021 24.7831 63.3541 24.8395 63.7253 24.8395C64.0899 24.8395 64.4064 24.7865 64.6749 24.6804C64.9467 24.5743 65.1571 24.4268 65.3063 24.2379C65.4554 24.049 65.53 23.8319 65.53 23.5866C65.53 23.358 65.4621 23.1657 65.3262 23.0099C65.1936 22.8542 64.998 22.7216 64.7395 22.6122C64.4843 22.5028 64.1711 22.4034 63.7999 22.3139L62.6912 22.0355C61.8328 21.8267 61.155 21.5002 60.6578 21.0561C60.1607 20.612 59.9138 20.0137 59.9171 19.2614C59.9138 18.6449 60.0778 18.1063 60.4093 17.6456C60.744 17.1849 61.2031 16.8253 61.7864 16.5668C62.3697 16.3082 63.0326 16.179 63.775 16.179C64.5307 16.179 65.1903 16.3082 65.7537 16.5668C66.3205 16.8253 66.7613 17.1849 67.0762 17.6456C67.391 18.1063 67.5534 18.6399 67.5634 19.2464H65.5002ZM68.554 16.3182H70.9652L73.2869 20.7031H73.3864L75.7081 16.3182H78.1193L74.4055 22.9006V26.5H72.2678V22.9006L68.554 16.3182ZM79.2951 26.5V16.3182H86.0366V18.093H81.4478V20.5192H85.5891V22.294H81.4478V26.5H79.2951ZM87.4846 26.5V16.3182H91.5016C92.2705 16.3182 92.9268 16.4557 93.4703 16.7308C94.0172 17.0026 94.4332 17.3887 94.7182 17.8892C95.0066 18.3864 95.1507 18.9714 95.1507 19.6442C95.1507 20.3203 95.0049 20.902 94.7132 21.3892C94.4216 21.8731 93.999 22.2443 93.4455 22.5028C92.8953 22.7614 92.2291 22.8906 91.4469 22.8906H88.7573V21.1605H91.0989C91.5099 21.1605 91.8513 21.1042 92.123 20.9915C92.3948 20.8788 92.597 20.7098 92.7296 20.4844C92.8655 20.259 92.9334 19.9789 92.9334 19.6442C92.9334 19.3061 92.8655 19.0211 92.7296 18.7891C92.597 18.5571 92.3932 18.3814 92.1181 18.2621C91.8463 18.1394 91.5033 18.0781 91.089 18.0781H89.6373V26.5H87.4846ZM92.9831 21.8665L95.5137 26.5H93.1373L90.6614 21.8665H92.9831ZM98.427 26.5H96.1202L99.6351 16.3182H102.409L105.919 26.5H103.612L101.062 18.6449H100.982L98.427 26.5ZM98.2828 22.4979H103.732V24.1783H98.2828V22.4979Z" fill="black"/>
</svg>
